# File created by Blade
# Date/Time:  Wed Apr 08 16:20:06 2015
#---------------------------------------------------------
:version 1.10
:name HOM
:units
  mass 1.0
  length 1.000000
  angle deg
:documentation
     Acclaim Skeleton File
:root
   axis xyz
   order TX TY TZ RX RY RZ
   position 0.000000 0.000000 0.000000
   orientation 0 0 0
:bonedata
   begin
      id 1
      name Spine_dum
      direction 0.000000 1.000000 0.000000
      length 4.885285
      axis 0.0 0.0 0.0 xyz
   end
   begin
      id 2
      name LeftUpLeg_dum
      direction 1.000000 0.000000 0.000000
      length 2.672193
      axis 0.0 0.0 0.0 xyz
   end
   begin
      id 3
      name RightUpLeg_dum
      direction -1.000000 0.000000 0.000000
      length 2.672193
      axis 0.0 0.0 0.0 xyz
   end
   begin
      id 4
      name Spine
      direction 0.000000 1.000000 0.000000
      length 0.000000
      axis 0.0 0.0 0.0 xyz
      dof rx ry rz
   end
   begin
      id 5
      name Spine_dum1
      direction 0.000000 1.000000 0.000000
      length 16.494159
      axis 0.0 0.0 0.0 xyz
   end
   begin
      id 6
      name Spine_dum2
      direction 0.000000 1.000000 0.000000
      length 10.663448
      axis 0.0 0.0 0.0 xyz
   end
   begin
      id 7
      name Spine_dum3
      direction 0.000000 1.000000 0.000000
      length 10.663448
      axis 0.0 0.0 0.0 xyz
   end
   begin
      id 8
      name Head
      direction 0.000000 1.000000 0.000000
      length 4.527550
      axis 0.0 0.0 0.0 xyz
      dof rx ry rz
   end
   begin
      id 9
      name LeftShoulder
      direction 1.000000 0.000000 0.000000
      length 7.531907
      axis 0.0 0.0 -90.0 xyz
      dof rx ry rz
   end
   begin
      id 10
      name LeftArm
      direction 1.000000 0.000000 0.000000
      length 10.229199
      axis 0.0 0.0 -90.0 xyz
      dof rx ry rz
   end
   begin
      id 11
      name LeftForeArm
      direction 1.000000 0.000000 0.000000
      length 8.673495
      axis 0.0 0.0 -90.0 xyz
      dof ry rz rx
   end
   begin
      id 12
      name LeftHand
      direction 0.000000 0.000000 0.000000
      length 0.000000
      axis 0.0 0.0 -90.0 xyz
      dof rx ry rz
   end
   begin
      id 13
      name LeftHand_dum1
      direction 0.000000 0.000000 0.000000
      length 0.000000
      axis 0.0 0.0 -90.0 xyz
   end
   begin
      id 14
      name LeftHand_dum2
      direction 1.000000 0.000000 0.000000
      length 3.937000
      axis 0.0 0.0 -90.0 xyz
   end
   begin
      id 15
      name LeftHandThumb1
      direction 0.000000 0.000000 1.000000
      length 3.937000
      axis 0.0 0.0 -90.0 xyz
      dof rx rz ry
   end
   begin
      id 16
      name RightShoulder
      direction -1.000000 0.000000 0.000000
      length 7.531907
      axis 0.0 0.0 90.0 xyz
      dof rx ry rz
   end
   begin
      id 17
      name RightArm
      direction -1.000000 0.000000 0.000000
      length 10.229199
      axis 0.0 0.0 90.0 xyz
      dof rx ry rz
   end
   begin
      id 18
      name RightForeArm
      direction -1.000000 0.000000 0.000000
      length 8.673495
      axis 0.0 0.0 90.0 xyz
      dof ry rz rx
   end
   begin
      id 19
      name RightHand
      direction 0.000000 0.000000 0.000000
      length 0.000000
      axis 0.0 0.0 90.0 xyz
      dof rx ry rz
   end
   begin
      id 20
      name RightHand_dum1
      direction 0.000000 0.000000 0.000000
      length 0.000000
      axis 0.0 0.0 90.0 xyz
   end
   begin
      id 21
      name RightHand_dum2
      direction -1.000000 0.000000 0.000000
      length 3.937000
      axis 0.0 0.0 90.0 xyz
   end
   begin
      id 22
      name RightHandThumb1
      direction 0.000000 0.000000 1.000000
      length 3.937000
      axis 0.0 0.0 90.0 xyz
      dof rx rz ry
   end
   begin
      id 23
      name LeftUpLeg
      direction 0.000000 -1.000000 0.000000
      length 16.263388
      axis 0.0 0.0 0.0 xyz
      dof rx ry rz
   end
   begin
      id 24
      name LeftLeg
      direction 0.000000 -1.000000 0.000000
      length 14.328163
      axis 0.0 0.0 0.0 xyz
      dof rx ry rz
   end
   begin
      id 25
      name LeftFoot
      direction 0.000000 -0.258819 0.965926
      length 5.031290
      axis 15.0 0.0 0.0 xyz
      dof rx ry rz
   end
   begin
      id 26
      name LeftToeBase
      direction 0.000000 0.000000 1.000000
      length 2.952750
      axis 0.0 0.0 0.0 xyz
      dof rx ry rz
   end
   begin
      id 27
      name RightUpLeg
      direction 0.000000 -1.000000 0.000000
      length 16.263388
      axis 0.0 0.0 0.0 xyz
      dof rx ry rz
   end
   begin
      id 28
      name RightLeg
      direction 0.000000 -1.000000 0.000000
      length 14.328163
      axis 0.0 0.0 0.0 xyz
      dof rx ry rz
   end
   begin
      id 29
      name RightFoot
      direction 0.000000 -0.258819 0.965926
      length 5.031290
      axis 15.0 0.0 0.0 xyz
      dof rx ry rz
   end
   begin
      id 30
      name RightToeBase
      direction 0.000000 0.000000 1.000000
      length 2.952750
      axis 0.0 0.0 0.0 xyz
      dof rx ry rz
   end
:hierarchy
   begin
      root Spine_dum LeftUpLeg_dum RightUpLeg_dum
      Spine_dum Spine
      LeftUpLeg_dum LeftUpLeg
      RightUpLeg_dum RightUpLeg
      Spine Spine_dum1 Spine_dum2 Spine_dum3
      Spine_dum1 Head
      Spine_dum2 LeftShoulder
      Spine_dum3 RightShoulder
      LeftShoulder LeftArm
      LeftArm LeftForeArm
      LeftForeArm LeftHand
      LeftHand LeftHand_dum1 LeftHand_dum2
      LeftHand_dum1 LeftHandThumb1
      RightShoulder RightArm
      RightArm RightForeArm
      RightForeArm RightHand
      RightHand RightHand_dum1 RightHand_dum2
      RightHand_dum1 RightHandThumb1
      LeftUpLeg LeftLeg
      LeftLeg LeftFoot
      LeftFoot LeftToeBase
      RightUpLeg RightLeg
      RightLeg RightFoot
      RightFoot RightToeBase
   end

# File created by Blade
# Date/Time:  Wed Apr 08 16:19:59 2015
# Frame Rate: 120.000 fps
#------------------------------------------------------
:FULLY-SPECIFIED
:DEGREES
1
root 3.773387 32.732550 -2.608677 10.518209 1.819157 -0.735113
Spine -14.729632 -7.517602 -0.288540
Head 13.552436 -5.577180 -0.312049
LeftShoulder -19.451567 37.325095 23.044290
LeftArm 56.323175 -58.234451 -58.462076
LeftForeArm 8.258844 -0.000000 -3.800357
LeftHand 2.367587 0.000000 2.688171
LeftHandThumb1 -26.253704 0.000000 33.147579
RightShoulder -7.567936 4.841033 -31.480829
RightArm 11.733453 18.811025 41.315915
RightForeArm -8.408168 0.000000 0.112648
RightHand 1.539877 -0.000000 5.635230
RightHandThumb1 -24.326973 -0.000000 -32.862282
LeftUpLeg -4.389598 -5.614720 1.649530
LeftLeg -2.702934 -0.000000 0.000000
LeftFoot -6.138397 8.960649 -15.540043
LeftToeBase -2.014890 -0.000000 0.000000
RightUpLeg -3.225704 -0.398531 2.814604
RightLeg -4.381734 -0.000000 0.000000
RightFoot -6.580830 -9.959932 7.844345
RightToeBase 3.424571 -0.000000 -0.000000
2
root 3.775335 32.733459 -2.603279 10.532113 1.810236 -0.738234
Spine -14.762448 -7.489833 -0.300779
Head 13.589845 -5.593513 -0.308173
LeftShoulder -19.440595 37.321066 23.056235
LeftArm 56.328232 -58.211430 -58.469766
LeftForeArm 8.249688 -0.000000 -3.800903
LeftHand 2.332061 0.000000 2.654341
LeftHandThumb1 -26.253704 0.000000 33.147579
RightShoulder -7.572631 4.859054 -31.478321
RightArm 11.716444 18.797143 41.325320
RightForeArm -8.354610 -0.000000 0.112845
RightHand 1.555437 -0.000000 5.588098
RightHandThumb1 -24.326973 -0.000000 -32.862282
LeftUpLeg -4.385407 -5.620540 1.648773
LeftLeg -2.721490 -0.000000 0.000000
LeftFoot -6.136436 8.991076 -15.535254
LeftToeBase -1.981618 -0.000000 0.000000
RightUpLeg -3.254062 -0.444535 2.818870
RightLeg -4.333054 -0.000000 0.000000
RightFoot -6.599418 -9.912136 7.828857
RightToeBase 3.427700 -0.000000 -0.000000
3
root 3.776415 32.733461 -2.596393 10.540102 1.820259 -0.741973
Spine -14.794140 -7.484737 -0.311857
Head 13.633287 -5.592636 -0.290377
LeftShoulder -19.426906 37.344599 23.079493
LeftArm 56.472804 -58.258529 -58.695901
LeftForeArm 8.367323 -0.000000 -3.721193
LeftHand 2.235594 -0.000000 2.632258
LeftHandThumb1 -26.253704 0.000000 33.147579
RightShoulder -7.573651 4.841058 -31.476163
RightArm 11.724333 18.788320 41.349700
RightForeArm -8.316043 -0.000000 0.115000
RightHand 1.561504 0.000000 5.514781
RightHandThumb1 -24.326973 -0.000000 -32.862282
LeftUpLeg -4.380666 -5.608955 1.647530
LeftLeg -2.726106 -0.000000 0.000000
LeftFoot -6.125663 8.978087 -15.521856
LeftToeBase -1.962147 -0.000000 0.000000
RightUpLeg -3.247729 -0.456873 2.821693
RightLeg -4.339092 -0.000000 0.000000
RightFoot -6.588640 -9.899817 7.816343
RightToeBase 3.405035 -0.000000 -0.000000
4
root 3.776706 32.734139 -2.591258 10.557626 1.818642 -0.753904
Spine -14.833267 -7.466569 -0.316748
Head 13.676187 -5.604532 -0.271671
LeftShoulder -19.392315 37.321199 23.122280
LeftArm 56.392655 -58.214160 -58.638764
LeftForeArm 8.317556 -0.000000 -3.731497
LeftHand 2.198266 -0.000000 2.608114
LeftHandThumb1 -26.253704 0.000000 33.147579
RightShoulder -7.574164 4.847970 -31.472697
RightArm 11.717627 18.779481 41.362638
RightForeArm -8.299347 -0.000000 0.123355
RightHand 1.485747 0.000000 5.563193
RightHandThumb1 -24.326973 -0.000000 -32.862282
LeftUpLeg -4.381668 -5.600524 1.658788
LeftLeg -2.738892 -0.000000 0.000000
LeftFoot -6.127997 8.984694 -15.501536
LeftToeBase -1.971256 -0.000000 0.000000
RightUpLeg -3.229034 -0.382810 2.823158
RightLeg -4.396311 -0.000000 0.000000
RightFoot -6.559527 -9.949708 7.865272
RightToeBase 3.399024 -0.000000 -0.000000
5
root 3.777654 32.734565 -2.586327 10.566110 1.811498 -0.762839
Spine -14.859627 -7.451751 -0.325681
Head 13.705611 -5.617109 -0.249112
LeftShoulder -19.379093 37.318394 23.135593
LeftArm 56.322814 -58.181552 -58.570537
LeftForeArm 8.281482 -0.000000 -3.732674
LeftHand 2.182216 -0.000000 2.561336
LeftHandThumb1 -26.253704 0.000000 33.147579
RightShoulder -7.572969 4.854012 -31.460794
RightArm 11.718451 18.783623 41.376547
RightForeArm -8.303806 -0.000000 0.127929
RightHand 1.602663 -0.000000 5.522895
RightHandThumb1 -24.326973 -0.000000 -32.862282
LeftUpLeg -4.371769 -5.601256 1.662719
LeftLeg -2.756037 -0.000000 0.000000
LeftFoot -6.124945 9.005400 -15.492053
LeftToeBase -2.012081 -0.000000 0.000000
RightUpLeg -3.231657 -0.381550 2.832090
RightLeg -4.387327 -0.000000 0.000000
RightFoot -6.569360 -9.948663 7.864133
RightToeBase 3.413963 -0.000000 -0.000000
6
root 3.779689 32.734689 -2.580450 10.565085 1.796486 -0.770479
Spine -14.879364 -7.442984 -0.329268
Head 13.740929 -5.602347 -0.235376
LeftShoulder -19.359041 37.299236 23.146518
LeftArm 56.178961 -58.148927 -58.436688
LeftForeArm 8.206666 -0.000000 -3.746798
LeftHand 2.300506 -0.000000 2.447499
LeftHandThumb1 -26.253704 0.000000 33.147579
RightShoulder -7.548704 4.870079 -31.436995
RightArm 11.707720 18.776446 41.360275
RightForeArm -8.367929 -0.000000 0.116319
RightHand 1.622603 -0.000000 5.392259
RightHandThumb1 -24.326973 -0.000000 -32.862282
LeftUpLeg -4.349203 -5.589923 1.661241
LeftLeg -2.778910 -0.000000 0.000000
LeftFoot -6.115897 9.016433 -15.484732
LeftToeBase -1.948543 -0.000000 0.000000
RightUpLeg -3.233012 -0.390515 2.838942
RightLeg -4.364260 -0.000000 0.000000
RightFoot -6.579927 -9.947419 7.839831
RightToeBase 3.424653 -0.000000 -0.000000
7
root 3.781252 32.734031 -2.575037 10.567237 1.792373 -0.785508
Spine -14.895842 -7.435873 -0.323622
Head 13.756297 -5.607301 -0.227750
LeftShoulder -19.340977 37.293425 23.162418
LeftArm 56.153357 -58.139426 -58.439085
LeftForeArm 8.191851 -0.000000 -3.766328
LeftHand 2.315760 -0.000000 2.495785
LeftHandThumb1 -26.253704 0.000000 33.147579
RightShoulder -7.552737 4.888449 -31.446373
RightArm 11.719041 18.739637 41.390203
RightForeArm -8.328280 -0.000000 0.115824
RightHand 1.695144 0.000000 5.410324
RightHandThumb1 -24.326973 -0.000000 -32.862282
LeftUpLeg -4.330760 -5.596040 1.670355
LeftLeg -2.798474 -0.000000 0.000000
LeftFoot -6.124350 9.043926 -15.460837
LeftToeBase -2.003566 -0.000000 0.000000
RightUpLeg -3.222638 -0.377724 2.847254
RightLeg -4.369271 -0.000000 0.000000
RightFoot -6.582456 -9.930743 7.880310
RightToeBase 3.382900 -0.000000 -0.000000
8
root 3.783140 32.733506 -2.569499 10.569063 1.789282 -0.795616
Spine -14.915119 -7.417666 -0.324036
Head 13.774708 -5.611395 -0.216684
LeftShoulder -19.340202 37.312478 23.163159
LeftArm 56.230993 -58.134183 -58.528251
LeftForeArm 8.193792 -0.000000 -3.765850
LeftHand 2.216911 -0.000000 2.489086
LeftHandThumb1 -26.253704 0.000000 33.147579
RightShoulder -7.552112 4.886885 -31.439132
RightArm 11.712640 18.748108 41.393448
RightForeArm -8.367126 -0.000000 0.111751
RightHand 1.815144 -0.000000 5.375039
RightHandThumb1 -24.326973 -0.000000 -32.862282
LeftUpLeg -4.312341 -5.595036 1.675709
LeftLeg -2.818163 -0.000000 0.000000
LeftFoot -6.112841 9.054340 -15.442427
LeftToeBase -2.012768 -0.000000 0.000000
RightUpLeg -3.206981 -0.355037 2.853438
RightLeg -4.385037 -0.000000 0.000000
RightFoot -6.572507 -9.951665 7.877679
RightToeBase 3.380923 -0.000000 -0.000000
9
root 3.785136 32.732966 -2.563710 10.565838 1.796638 -0.803426
Spine -14.921805 -7.418398 -0.323826
Head 13.779354 -5.610922 -0.206719
LeftShoulder -19.355313 37.347904 23.144582
LeftArm 56.212262 -58.078014 -58.457818
LeftForeArm 8.072692 0.000000 -3.827830
LeftHand 2.173522 0.000000 2.469756
LeftHandThumb1 -26.253704 0.000000 33.147579
RightShoulder -7.556382 4.912004 -31.441021
RightArm 11.712033 18.741092 41.412070
RightForeArm -8.375888 -0.000000 0.105831
RightHand 1.780585 -0.000000 5.277505
RightHandThumb1 -24.326973 -0.000000 -32.862282
LeftUpLeg -4.293518 -5.576067 1.676305
LeftLeg -2.832101 -0.000000 0.000000
LeftFoot -6.118717 9.038969 -15.449820
LeftToeBase -2.008224 -0.000000 0.000000
RightUpLeg -3.189347 -0.323955 2.855070
RightLeg -4.393605 -0.000000 0.000000
RightFoot -6.579073 -9.987013 7.862665
RightToeBase 3.404636 -0.000000 -0.000000
10
root 3.786860 32.732897 -2.558977 10.569129 1.795737 -0.815104
Spine -14.935196 -7.418226 -0.320203
Head 13.771417 -5.592612 -0.187034
LeftShoulder -19.331174 37.329677 23.169332
LeftArm 56.195028 -58.091754 -58.516257
LeftForeArm 8.114681 -0.000000 -3.792391
LeftHand 2.171727 -0.000000 2.490473
LeftHandThumb1 -26.253704 0.000000 33.147579
RightShoulder -7.553779 4.924153 -31.451901
RightArm 11.719302 18.748458 41.453113
RightForeArm -8.377881 -0.000000 0.108991
RightHand 1.901925 -0.000000 5.230897
RightHandThumb1 -24.326973 -0.000000 -32.862282
LeftUpLeg -4.281524 -5.581555 1.684039
LeftLeg -2.845263 -0.000000 0.000000
LeftFoot -6.124429 9.056475 -15.438488
LeftToeBase -1.991646 -0.000000 0.000000
RightUpLeg -3.183170 -0.297095 2.863162
RightLeg -4.396795 -0.000000 0.000000
RightFoot -6.587352 -10.012825 7.875343
RightToeBase 3.422017 -0.000000 -0.000000
11
root 3.788071 32.733043 -2.554488 10.566943 1.795243 -0.829023
Spine -14.942563 -7.413547 -0.315233
Head 13.766091 -5.591080 -0.172472
LeftShoulder -19.308636 37.304865 23.177603
LeftArm 56.127166 -58.085782 -58.474188
LeftForeArm 8.108137 -0.000000 -3.798681
LeftHand 2.219151 -0.000000 2.485144
LeftHandThumb1 -26.253704 0.000000 33.147579
RightShoulder -7.542177 4.932526 -31.438058
RightArm 11.714710 18.769315 41.449009
RightForeArm -8.429755 -0.000000 0.102831
RightHand 1.958316 -0.000000 5.046566
RightHandThumb1 -24.326973 -0.000000 -32.862282
LeftUpLeg -4.259046 -5.596006 1.695296
LeftLeg -2.871595 -0.000000 0.000000
LeftFoot -6.125434 9.068934 -15.444448
LeftToeBase -1.968008 -0.000000 0.000000
RightUpLeg -3.176194 -0.311577 2.877116
RightLeg -4.388619 -0.000000 0.000000
RightFoot -6.592205 -9.995437 7.887625
RightToeBase 3.406441 -0.000000 -0.000000
12
root 3.789752 32.732848 -2.550406 10.569170 1.800542 -0.840390
Spine -14.950524 -7.412733 -0.315330
Head 13.756201 -5.603386 -0.145322
LeftShoulder -19.296444 37.287822 23.193399
LeftArm 56.096766 -58.072469 -58.468978
LeftForeArm 8.111075 0.000000 -3.814984
LeftHand 2.247161 -0.000000 2.463771
LeftHandThumb1 -26.253704 0.000000 33.147579
RightShoulder -7.535899 4.900359 -31.426918
RightArm 11.736420 18.804021 41.469600
RightForeArm -8.436212 -0.000000 0.108024
RightHand 1.920555 0.000000 4.926422
RightHandThumb1 -24.326973 -0.000000 -32.862282
LeftUpLeg -4.246526 -5.626987 1.707050
LeftLeg -2.889980 -0.000000 0.000000
LeftFoot -6.117144 9.096289 -15.434565
LeftToeBase -2.015130 -0.000000 0.000000
RightUpLeg -3.177466 -0.314840 2.890174
RightLeg -4.379050 -0.000000 0.000000
RightFoot -6.595408 -10.028052 7.844845
RightToeBase 3.389875 -0.000000 -0.000000
